<?xml version="1.0" encoding="utf-8"?>
<!-- Generator: Adobe Illustrator 27.5.0, SVG Export Plug-In . SVG Version: 6.00 Build 0)  -->
<svg version="1.1" xmlns="http://www.w3.org/2000/svg" xmlns:xlink="http://www.w3.org/1999/xlink" x="0px" y="0px"
	 viewBox="0 0 500 500" style="enable-background:new 0 0 500 500;" xml:space="preserve">
<g id="BACKGROUND">
	<rect style="fill:#0F1226;" width="500" height="500"/>
</g>
<g id="OBJECTS">
	<g>
		<linearGradient id="SVGID_1_" gradientUnits="userSpaceOnUse" x1="246.3381" y1="157.826" x2="246.3381" y2="265.8376">
			<stop  offset="0" style="stop-color:#4BDFF0"/>
			<stop  offset="0.5366" style="stop-color:#CF2699"/>
			<stop  offset="1" style="stop-color:#F0C44B"/>
		</linearGradient>
		<path style="fill:url(#SVGID_1_);" d="M235.884,181.4c7.551,8.745,12.789,46.073,12.563,58.096l8.345-1.23
			c-0.533-18.972-12.131-48.806-17.344-58.895L235.884,181.4z"/>
		
			<linearGradient id="SVGID_00000123442451602564106530000013296987771823157673_" gradientUnits="userSpaceOnUse" x1="236.9518" y1="157.8261" x2="236.9518" y2="265.8376">
			<stop  offset="0" style="stop-color:#4BDFF0"/>
			<stop  offset="0.5366" style="stop-color:#CF2699"/>
			<stop  offset="1" style="stop-color:#F0C44B"/>
		</linearGradient>
		<path style="fill:url(#SVGID_00000123442451602564106530000013296987771823157673_);" d="M232.764,169.593
			c-7.941-5.916-22.268-3.797-25.246,8.264c4.255-4.045,12.58-7.619,18.37-4.153c-11.743,1.38-19.064,14.889-13.486,22.838
			c2.584-8.077,8.247-17.371,16.566-16.765c-11.205,16.523,3.693,25.006,3.693,25.006c-6.312-10.091,4.936-24.516,4.936-24.516
			c23.845-0.767,25.993,8.579,25.993,8.579c2.826-14.8-19.046-17.54-19.046-17.54c8.776-5.411,21.84,0.088,21.84,0.088
			c0.127-11.407-21.655-13.972-28.071-3.549c1.109-9.933,10.665-11.695,10.665-11.695
			C239.966,149.452,228.998,159.294,232.764,169.593z"/>
		
			<linearGradient id="SVGID_00000007394154718219328050000006123457943731859869_" gradientUnits="userSpaceOnUse" x1="268.309" y1="157.826" x2="268.309" y2="265.8372">
			<stop  offset="0" style="stop-color:#4BDFF0"/>
			<stop  offset="0.5366" style="stop-color:#CF2699"/>
			<stop  offset="1" style="stop-color:#F0C44B"/>
		</linearGradient>
		<path style="fill:url(#SVGID_00000007394154718219328050000006123457943731859869_);" d="M282.017,200.465
			c-2.137,8.354-22.726,27.696-30.17,32.769l4.296,4.511c11.369-8.543,24.676-28.483,28.628-36.005L282.017,200.465z"/>
		
			<linearGradient id="SVGID_00000051372081815847099000000011108256306142280862_" gradientUnits="userSpaceOnUse" x1="284.069" y1="157.826" x2="284.069" y2="265.8376">
			<stop  offset="0" style="stop-color:#4BDFF0"/>
			<stop  offset="0.5366" style="stop-color:#CF2699"/>
			<stop  offset="1" style="stop-color:#F0C44B"/>
		</linearGradient>
		<path style="fill:url(#SVGID_00000051372081815847099000000011108256306142280862_);" d="M287.295,194.088
			c6.054-4.293,16.751-2.453,18.769,6.636c-3.117-3.105-9.292-5.93-13.69-3.435c8.774,1.241,14.022,11.491,9.702,17.348
			c-1.794-6.097-5.874-13.16-12.117-12.852c8.104,12.577-3.207,18.671-3.207,18.671c4.906-7.45-3.267-18.455-3.267-18.455
			c-17.852-0.994-19.625,5.97-19.625,5.97c-1.857-11.138,14.578-12.807,14.578-12.807c-6.48-4.209-16.365-0.318-16.365-0.318
			c0.106-8.549,16.47-10.087,21.094-2.165c-0.656-7.462-7.784-8.95-7.784-8.95C282.253,178.871,290.298,186.438,287.295,194.088z"/>
		
			<linearGradient id="SVGID_00000066481103831952867900000006698868737532848261_" gradientUnits="userSpaceOnUse" x1="249.0924" y1="157.8263" x2="249.0924" y2="265.8373">
			<stop  offset="0" style="stop-color:#4BDFF0"/>
			<stop  offset="0.5366" style="stop-color:#CF2699"/>
			<stop  offset="1" style="stop-color:#F0C44B"/>
		</linearGradient>
		<path style="fill:url(#SVGID_00000066481103831952867900000006698868737532848261_);" d="M286.322,247.76
			c-9.138,11.045-22.944,18.08-38.39,18.08c-14.191,0-27.002-5.936-36.07-15.466c6.265-5.543,14.479-7.709,21.956-4.913
			c0,0,7.099-12.341,28.683-11.325C272.797,234.62,281.396,242.224,286.322,247.76z"/>
		
			<linearGradient id="SVGID_00000033348761537011725090000008106146571600552584_" gradientUnits="userSpaceOnUse" x1="247.44" y1="157.8261" x2="247.44" y2="265.8372">
			<stop  offset="0" style="stop-color:#4BDFF0"/>
			<stop  offset="0.5366" style="stop-color:#CF2699"/>
			<stop  offset="1" style="stop-color:#F0C44B"/>
		</linearGradient>
		<path style="fill:url(#SVGID_00000033348761537011725090000008106146571600552584_);" d="M296.9,218.29
			c-0.78,1.884-2.63,3.81-3.96,5.01c-1.29,7.97-4.68,15.51-9.86,21.78c-8.71,10.52-21.52,16.56-35.15,16.56
			c-12.6,0-24.34-5.04-33.02-14.17c-8.1-8.51-12.56-19.67-12.56-31.42c0-6.51,1.37-12.7,3.83-18.3c-1.29-2.67-1.84-5.69-1.63-8.79
			l-6.31,6c-2.77,6.48-4.3,13.61-4.3,21.09c0,13.92,5.28,27.13,14.87,37.23c10.3,10.81,24.19,16.77,39.12,16.77
			c16.15,0,31.32-7.15,41.63-19.61c5.78-6.99,9.67-15.32,11.38-24.15C300.94,226.29,299.543,221.217,296.9,218.29z"/>
	</g>
</g>
<g id="TEXTS">
	<g>
		<g>
			
				<text transform="matrix(1 0 0 1 175.6331 321.6047)" style="fill:#FFFFFF; font-family:'Montserrat-Medium'; font-size:42.2062px; letter-spacing:4;">OASIS</text>
		</g>
		<g>
			
				<text transform="matrix(1 0 0 1 205.3381 342.6438)" style="fill:#FFFFFF; font-family:'Montserrat-Regular'; font-size:12.972px; letter-spacing:1;">slogan here</text>
		</g>
	</g>
</g>
</svg>
